<?xml version="1.0" encoding="UTF-8" standalone="no"?>
<svg xmlns="http://www.w3.org/2000/svg" version="1.1" viewBox="0 0 270.93333 270.93333" height="1024" width="1024">
    <g transform="translate(0,-26.066691)">
        <path transform="matrix(0.26458333,0,0,0.26458333,0,26.066691)"
              d="M 512 0 A 511.99996 511.99996 0 0 0 335.71484 31.726562 L 335.71484 992.01562 A 511.99996 511.99996 0 0 0 512 1024 A 511.99996 511.99996 0 0 0 1024 512 A 511.99996 511.99996 0 0 0 512 0 z M 264.28516 64.576172 A 511.99996 511.99996 0 0 0 192.85742 113 L 192.85742 912.14062 A 511.99996 511.99996 0 0 0 264.28516 959.94336 L 264.28516 64.576172 z M 121.42773 182.51953 A 511.99996 511.99996 0 0 0 0 512 A 511.99996 511.99996 0 0 0 121.42773 842.81055 L 121.42773 182.51953 z "
              style="stroke-width:1.06985092;fill:#4c625d;fill-opacity:1"/>
    </g>
</svg>
