<svg version="1" xmlns="http://www.w3.org/2000/svg" width="933.333" height="933.333" viewBox="0 0 700.000000 700.000000"><path d="M329.8.4c-.1.2-4.2.6-8.9 1-25 1.7-54 7.7-81.4 16.8l-10 3.3v656.9l11.8 3.8c10.7 3.5 32.3 9.3 38.7 10.4 1.4.3 5.7 1.1 9.5 1.9 3.9.7 9.7 1.7 13 2.1 3.3.3 6.7.8 7.6.9 10.6 2 53.4 2.7 70.4 1.2 71.1-6.4 139.2-34.6 194-80.2 12.1-10.1 28.1-25.7 37.8-37 3.3-3.9 6.3-7.2 6.7-7.5 1.1-.9 13.6-17.3 18.5-24.4 25.8-37.4 47-86.4 55-127.6 1.7-8.8 3.5-19.4 4-23.5.4-2.8.8-6.1 1.1-7.5 1.9-11.3 2.6-54.1 1.1-71.5-.7-8.1-2.3-20.6-3.1-25.2-.2-1-1.1-5.9-2.1-10.8-16.9-90.7-71.1-172-149.8-225.1-6.8-4.5-6.3-4.2-14.7-9.2-35.2-20.9-83.2-38.7-118-43.8-1.9-.3-6-.9-9.1-1.5-3.1-.5-8.1-1.2-11-1.5-3-.3-6.7-.8-8.4-1-3.4-.5-52.1-1.4-52.7-1zM169.8 50.5c-10.4 6.3-29.1 19.4-34.4 23.9l-3.6 3.1v545.9l2.8 2.3c6.5 5.2 35.8 25.3 36.9 25.3.3 0 2.3 1.1 4.5 2.5s4.1 2.5 4.3 2.5c.2 0 .3-137.5.3-305.5.1-217.9-.3-305.5-1-305.4-.6 0-5 2.4-9.8 5.4zM76.2 133.1c-6.9 8.7-18.9 25.7-23.7 33.5-10.9 18-23.7 43.6-27.6 54.9-.7 2.2-1.6 4.4-2 5-1.4 2.1-10 29.9-12.8 41.4-2.7 10.9-6 29.1-7.6 41.1-1.5 11.9-2 22.3-2 42 .1 23.9.6 31.1 3.5 51 .6 4.1 1.3 8.6 1.5 10 2.1 14.8 11.6 47.7 19.6 67.7 5.1 12.8 16.8 37 21.4 44.3 1.4 2.2 2.5 4.2 2.5 4.5 0 1.2 20.2 30.4 26.9 38.9l7.1 8.9V350.7c0-124.1-.1-225.7-.2-225.7-.2 0-3.2 3.7-6.6 8.1z"/></svg>